<svg xmlns="http://www.w3.org/2000/svg" viewBox="0 0 64 64">
  <defs>
    <linearGradient id="g" x1="0" y1="0" x2="1" y2="1">
      <stop offset="0" stop-color="#34d399"/>
      <stop offset="1" stop-color="#22c55e"/>
    </linearGradient>
  </defs>
  <rect width="64" height="64" rx="12" fill="#0A0E27"/>
  <path fill="url(#g)" d="M36.8 12.5c0-1.4-1.2-2.5-2.8-2.5h-4c-1.6 0-2.8 1.1-2.8 2.5v2.2c-5.6 1-9.6 4.5-9.6 9.1 0 4.7 3.4 7.5 9.7 9.1l9.5 2.4c2.4.6 3.6 1.8 3.6 3.6 0 2.3-2.3 3.9-6.1 4.1-3.2.2-6.6-.7-9.6-2.6-1.2-.8-2.8-.5-3.6.7l-2.2 3.3c-.9 1.4-.5 3.2.9 4.1 3.5 2.3 7.7 3.8 12 4.2v2.2c0 1.4 1.2 2.5 2.8 2.5h4c1.6 0 2.8-1.1 2.8-2.5v-2.5c6.8-1.3 10.9-5.2 10.9-10.8 0-5.5-3.8-9.1-10.6-11l-9.7-2.6c-2.3-.6-3.4-1.6-3.4-3.3 0-2.1 2-3.6 5.4-3.8 2.7-.1 5.4.4 7.9 1.5 1.3.6 2.8.1 3.5-1.1l1.9-3.4c.8-1.5.1-3.3-1.4-4-2.9-1.3-6.1-2.2-9.4-2.5v-2.2z"/>
</svg>